<svg width="144" height="128" viewBox="0 0 144 128" fill="none" xmlns="http://www.w3.org/2000/svg">
<path d="M128 0H0V128H128V0Z" fill="#B44637"/>
<path d="M128 0H0V128H128V0Z" fill="#B44637"/>
<path d="M128 0H96V128H128V0Z" fill="#8E2F22"/>
<path d="M128 0H96V128H128V0Z" fill="#8E2F22"/>
<path d="M112 0H128V64H112V0Z" fill="#D6C096"/>
<path d="M28 52H44V116H28V52Z" fill="#D6C096"/>
<path d="M128 64H144V80H128V64Z" fill="#D6C096"/>
<path d="M12 100H28V116H12V100Z" fill="#D6C096"/>
<path d="M65 52H81V68H65V52Z" fill="#D6C096"/>
<path d="M49 52H65V84H49V52Z" fill="#D6C096"/>
<path d="M65 84H81V116H65V84Z" fill="#D6C096"/>
<path d="M49 100H65V116H49V100Z" fill="#D6C096"/>
</svg>
