<svg width="144" height="128" viewBox="0 0 144 128" fill="none" xmlns="http://www.w3.org/2000/svg">
<path d="M128 0H0V128H128V0Z" fill="#B44637"/>
<path d="M128 0H0V128H128V0Z" fill="#B44637"/>
<path d="M128 0H96V128H128V0Z" fill="#8E2F22"/>
<path d="M128 0H96V128H128V0Z" fill="#8E2F22"/>
<path d="M112 0H128V64H112V0Z" fill="#D6C096"/>
<path d="M24 56H40V120H24V56Z" fill="#D6C096"/>
<path d="M128 64H144V80H128V64Z" fill="#D6C096"/>
<path d="M8 104H24V120H8V104Z" fill="#D6C096"/>
<path d="M64 56H80V72H64V56Z" fill="#D6C096"/>
<path d="M48 56H64V88H48V56Z" fill="#D6C096"/>
<path d="M64 88H80V120H64V88Z" fill="#D6C096"/>
<path d="M48 104H64V120H48V104Z" fill="#D6C096"/>
</svg>
