<svg width="60" height="88" viewBox="0 0 60 88" fill="none" xmlns="http://www.w3.org/2000/svg">
<path d="M56 58.4998C61.166 60.9107 63.7232 82.5984 43 86.4999C31.755 88.617 1.50018 90.3154 1.5 69C1.49978 42.7121 27.65 50.8529 43 58.4998C52 61 50.834 56.089 56 58.4998Z" fill="#F9B949"/>
<circle cx="25.5" cy="35.5" r="25.5" fill="#F9B949"/>
<circle cx="36.5" cy="31.5" r="2.5" fill="#1F1B1B"/>
<circle cx="9.5" cy="21.5" r="2.5" fill="#1F1B1B"/>
<circle cx="10" cy="21" r="1" fill="#EBEBEB"/>
<circle cx="10" cy="21" r="1" fill="#EBEBEB"/>
<circle cx="10" cy="21" r="1" fill="#EBEBEB"/>
<circle cx="37" cy="31" r="1" fill="#EBEBEB"/>
<circle cx="37" cy="31" r="1" fill="#EBEBEB"/>
<circle cx="37" cy="31" r="1" fill="#EBEBEB"/>
<path d="M49.8808 7.37404C50.5137 5.27388 40.491 0.514532 39.3766 1.22816C38.2623 1.9418 33.2308 11.7323 33.2308 11.7323L43.7349 17.8782C43.7349 17.8782 49.2479 9.47421 49.8808 7.37404Z" fill="#B44637"/>
<path d="M49.8808 7.37404C50.5137 5.27388 40.491 0.514532 39.3766 1.22816C38.2623 1.9418 33.2308 11.7323 33.2308 11.7323L43.7349 17.8782C43.7349 17.8782 49.2479 9.47421 49.8808 7.37404Z" fill="#B44637"/>
<path d="M51 15C46 13.5 54.6472 7.06417 48.8171 5" stroke="#F9B949" stroke-width="2" stroke-linecap="round"/>
<path d="M19.5 27.1883C16.1667 26.3396 12 28.635 12 28.635C12 28.635 12.4167 30.7565 17.4167 32.7045C22.4167 34.6525 27 35 27 35C27 35 22.8333 28.037 19.5 27.1883Z" fill="#B44637"/>
</svg>
