<svg width="61" height="79" viewBox="0 0 61 79" fill="none" xmlns="http://www.w3.org/2000/svg">
<path d="M58.8257 55.7684C63.4688 62.5468 57.2431 75.2357 42.5 78C34.5 79.5 2.00013 79.4982 2 64.3957C1.99984 45.77 28.6339 50.3503 39.5543 55.7684C56.8985 61.3234 54.329 49.2038 58.8257 55.7684Z" fill="#F9B949"/>
<circle cx="25.5" cy="35.5" r="25.5" fill="#F9B949"/>
<circle cx="36.5" cy="31.5" r="2.5" fill="#1F1B1B"/>
<circle cx="9.5" cy="21.5" r="2.5" fill="#1F1B1B"/>
<circle cx="10" cy="21" r="1" fill="#EBEBEB"/>
<circle cx="10" cy="21" r="1" fill="#EBEBEB"/>
<circle cx="10" cy="21" r="1" fill="#EBEBEB"/>
<circle cx="37" cy="31" r="1" fill="#EBEBEB"/>
<circle cx="37" cy="31" r="1" fill="#EBEBEB"/>
<circle cx="37" cy="31" r="1" fill="#EBEBEB"/>
<path d="M11.6564 26.818C17.5013 31.4502 17.7946 23.2377 23.0134 28.6252C28.2321 34.0127 30.2289 37.3689 19.8597 35.7179C9.49045 34.0669 5.8115 22.1858 11.6564 26.818Z" fill="#B44637"/>
<path d="M49.8808 7.37404C50.5137 5.27388 40.491 0.514532 39.3766 1.22816C38.2623 1.94179 33.2308 11.7323 33.2308 11.7323L43.7349 17.8782C43.7349 17.8782 49.2479 9.47421 49.8808 7.37404Z" fill="#B44637"/>
<path d="M49.8808 7.37404C50.5137 5.27388 40.491 0.514532 39.3766 1.22816C38.2623 1.94179 33.2308 11.7323 33.2308 11.7323L43.7349 17.8782C43.7349 17.8782 49.2479 9.47421 49.8808 7.37404Z" fill="#B44637"/>
<path d="M51 15C46 13.5 54.6472 7.06417 48.8171 5" stroke="#F9B949" stroke-width="2" stroke-linecap="round"/>
</svg>
